<svg xmlns="http://www.w3.org/2000/svg" viewBox="0 0 32 32" width="32" height="32">
  <circle cx="16" cy="16" r="15" fill="#1e3a5f" stroke="#2c5282" stroke-width="1"/>
  <g fill="white">
    <path d="M8 8v16h3.5c1.5 0 2.5-0.3 3.2-0.9 0.7-0.6 1-1.5 1-2.6 0-0.7-0.2-1.3-0.5-1.7-0.3-0.4-0.8-0.7-1.4-0.9 0.5-0.2 0.9-0.5 1.2-0.9 0.3-0.4 0.4-0.9 0.4-1.5 0-1-0.3-1.7-0.9-2.2C14.5 7.8 13.5 7.5 12 7.5H8zm2.5 2.5h1.5c0.7 0 1.2 0.1 1.5 0.4 0.3 0.3 0.5 0.7 0.5 1.2s-0.2 0.9-0.5 1.2c-0.3 0.3-0.8 0.4-1.5 0.4h-1.5v-3.2zm0 5.7h1.7c0.8 0 1.4 0.1 1.7 0.4 0.3 0.3 0.5 0.7 0.5 1.3s-0.2 1-0.5 1.3c-0.3 0.3-0.9 0.4-1.7 0.4h-1.7v-3.4z"/>
    <path d="M18 8v2.5l4.5 5.5H18v2h6v-2.5l-4.5-5.5H24V8h-6z"/>
  </g>
  <defs>
    <radialGradient id="depth" cx="0.3" cy="0.3">
      <stop offset="0%" stop-color="white" stop-opacity="0.2"/>
      <stop offset="100%" stop-color="white" stop-opacity="0"/>
    </radialGradient>
  </defs>
  <circle cx="16" cy="16" r="15" fill="url(#depth)"/>
</svg>
