<svg xmlns="http://www.w3.org/2000/svg" viewBox="0 0 192 192" width="192" height="192">
  <circle cx="96" cy="96" r="90" fill="#1e3a5f" stroke="#2c5282" stroke-width="6"/>
  <g fill="white">
    <path d="M48 48v96h21c9 0 15-1.8 19.2-5.4 4.2-3.6 6-9 6-15.6 0-4.2-1.2-7.8-3-10.2-1.8-2.4-4.8-4.2-8.4-5.4 3-1.2 5.4-3 7.2-5.4 1.8-2.4 2.4-5.4 2.4-9 0-6-1.8-10.2-5.4-13.2C87 46.8 81 45 72 45H48zm15 15h9c4.2 0 7.2 0.6 9 2.4 1.8 1.8 3 4.2 3 7.2s-1.2 5.4-3 7.2c-1.8 1.8-4.8 2.4-9 2.4H63V63zm0 34.2h10.2c4.8 0 8.4 0.6 10.2 2.4 1.8 1.8 3 4.2 3 7.8s-1.2 6-3 7.8c-1.8 1.8-5.4 2.4-10.2 2.4H63V97.2z"/>
    <path d="M108 48v15l27 33h-27v12h36v-15l-27-33h36V48h-36z"/>
  </g>
  <defs>
    <radialGradient id="depth" cx="0.3" cy="0.3">
      <stop offset="0%" stop-color="white" stop-opacity="0.2"/>
      <stop offset="100%" stop-color="white" stop-opacity="0"/>
    </radialGradient>
  </defs>
  <circle cx="96" cy="96" r="90" fill="url(#depth)"/>
</svg>
