<svg xmlns="http://www.w3.org/2000/svg" viewBox="0 0 16 16" width="16" height="16">
  <circle cx="8" cy="8" r="7.5" fill="#1e3a5f" stroke="#2c5282" stroke-width="0.5"/>
  <g fill="white">
    <path d="M4 4v8h1.75c0.75 0 1.25-0.15 1.6-0.45 0.35-0.3 0.5-0.75 0.5-1.3 0-0.35-0.1-0.65-0.25-0.85-0.15-0.2-0.4-0.35-0.7-0.45 0.25-0.1 0.45-0.25 0.6-0.45 0.15-0.2 0.2-0.45 0.2-0.75 0-0.5-0.15-0.85-0.45-1.1C7.25 3.9 6.75 3.75 6 3.75H4zm1.25 1.25h0.75c0.35 0 0.6 0.05 0.75 0.2 0.15 0.15 0.25 0.35 0.25 0.6s-0.1 0.45-0.25 0.6c-0.15 0.15-0.4 0.2-0.75 0.2H5.25V5.25zm0 2.85h0.85c0.4 0 0.7 0.05 0.85 0.2 0.15 0.15 0.25 0.35 0.25 0.65s-0.1 0.5-0.25 0.65c-0.15 0.15-0.45 0.2-0.85 0.2H5.25V8.1z"/>
    <path d="M9 4v1.25l2.25 2.75H9v1h3v-1.25l-2.25-2.75H12V4H9z"/>
  </g>
  <defs>
    <radialGradient id="depth" cx="0.3" cy="0.3">
      <stop offset="0%" stop-color="white" stop-opacity="0.2"/>
      <stop offset="100%" stop-color="white" stop-opacity="0"/>
    </radialGradient>
  </defs>
  <circle cx="8" cy="8" r="7.5" fill="url(#depth)"/>
</svg>
